<svg xmlns="http://www.w3.org/2000/svg" viewBox="0 0 592.88 379.5"><defs><style>.cls-1{fill:#fff;}</style></defs><g id="Layer_2" data-name="Layer 2"><g id="Capa_1" data-name="Capa 1"><polygon class="cls-1" points="66.94 0 0 89.25 0 223.92 66.94 191.25 66.94 0"/><path class="cls-1" d="M512.39,131.49,76.5,0V188.86L254,209.32l170.62-34.71a4.43,4.43,0,0,1,.89,0,5.79,5.79,0,0,1,.93,0l89.51,16.57ZM162.56,58.17l86.06,23.9V92.62L162.56,70.78Zm86.06,76.5-86.06-14.75V80.65l86.06,21.84Z"/><polygon class="cls-1" points="233.09 212.37 72.91 195.63 7.17 225.51 128.69 233.88 233.09 212.37"/><path class="cls-1" d="M430.31,185V379.5l127.34-15.33h6.54v-.79l28.69-3.45V215.15L516.48,201Zm19.13,46.82V230.7l54.18,7.42,3.19.43v123l-57.37,7ZM583.31,352.22l-19.12,2.33V246.4L583.31,249Zm-28.69,3.5-38.24,4.66V239.86l38.24,5.24Z"/><polygon class="cls-1" points="105.19 249.34 105.19 340.82 200.81 352.53 200.81 274.12 248.63 268.54 248.63 358.39 420.75 379.49 420.75 228.55 420.75 185.14 284.57 212.85 105.19 249.34"/></g></g></svg>